<svg xmlns="http://www.w3.org/2000/svg" viewBox="0 0 1000 336" font-family="-apple-system, system-ui, 'Segoe UI', Roboto, sans-serif">
  <rect width="1000" height="336" fill="#f6f8fa"/>

  <!-- header -->
  <g transform="translate(32,26)" fill="none" stroke="#2563eb" stroke-width="2.2" stroke-linecap="round" stroke-linejoin="round">
    <circle cx="6" cy="6" r="2.3"/><circle cx="6" cy="18" r="2.3"/><circle cx="18" cy="12" r="2.3"/>
    <path d="M6 8.3v7.4"/><path d="M8.3 6.6c5 .3 7.3 2.4 7.5 5.4"/>
  </g>
  <text x="62" y="45" font-size="20" font-weight="600" fill="#1f2328">mergebot</text>
  <text x="168" y="45" font-size="14" fill="#656d76">acme/monorepo</text>

  <!-- header stats -->
  <g text-anchor="end">
    <text x="648" y="42" font-size="18" font-weight="600" fill="#1f2328">15</text>
    <text x="732" y="42" font-size="18" font-weight="600" fill="#1f2328">6</text>
    <text x="828" y="42" font-size="18" font-weight="600" fill="#1f2328">7m12s</text>
    <text x="648" y="56" font-size="9" fill="#656d76" letter-spacing="0.5">IN QUEUE</text>
    <text x="732" y="56" font-size="9" fill="#656d76" letter-spacing="0.5">MERGED</text>
    <text x="828" y="56" font-size="9" fill="#656d76" letter-spacing="0.5">AVG MERGE</text>
  </g>
  <g transform="translate(858,24)" fill="#2563eb" opacity="0.75">
    <rect x="0" y="16" width="15" height="10" rx="1"/><rect x="18" y="8" width="15" height="18" rx="1"/>
    <rect x="36" y="20" width="15" height="6" rx="1"/><rect x="54" y="2" width="15" height="24" rx="1"/>
    <rect x="72" y="12" width="15" height="14" rx="1"/><rect x="90" y="18" width="15" height="8" rx="1"/>
  </g>
  <text x="968" y="62" text-anchor="end" font-size="9" fill="#656d76" letter-spacing="0.5">MERGE TIME</text>

  <!-- tabs -->
  <g font-size="15">
    <text x="32" y="100" font-weight="600" fill="#1f2328">Merge Queue</text>
    <rect x="138" y="89" width="26" height="17" rx="8.5" fill="#2563eb"/><text x="151" y="101.5" text-anchor="middle" font-size="11" font-weight="600" fill="#fff">15</text>
    <text x="186" y="100" fill="#656d76">Merge conflicts</text>
    <rect x="304" y="89" width="22" height="17" rx="8.5" fill="#eef1f4"/><text x="315" y="101.5" text-anchor="middle" font-size="11" font-weight="600" fill="#656d76">0</text>
    <text x="346" y="100" fill="#656d76">My Open PR</text>
    <rect x="436" y="89" width="22" height="17" rx="8.5" fill="#eef1f4"/><text x="447" y="101.5" text-anchor="middle" font-size="11" font-weight="600" fill="#656d76">3</text>
    <text x="478" y="100" fill="#656d76">Failed</text>
    <rect x="530" y="89" width="22" height="17" rx="8.5" fill="#eef1f4"/><text x="541" y="101.5" text-anchor="middle" font-size="11" font-weight="600" fill="#656d76">0</text>
    <text x="574" y="100" fill="#656d76">History</text>
    <rect x="636" y="89" width="22" height="17" rx="8.5" fill="#eef1f4"/><text x="647" y="101.5" text-anchor="middle" font-size="11" font-weight="600" fill="#656d76">6</text>
  </g>
  <rect x="32" y="112" width="132" height="2.5" fill="#2563eb"/>
  <line x1="32" y1="120" x2="968" y2="120" stroke="#d6dbe1"/>

  <!-- card -->
  <rect x="32" y="136" width="936" height="176" rx="12" fill="#ffffff" stroke="#d6dbe1"/>
  <path d="M44 136 H956 a12 12 0 0 1 12 12 V170 H32 V148 a12 12 0 0 1 12 -12 Z" fill="#eef1f4"/>
  <line x1="32" y1="170" x2="968" y2="170" stroke="#d6dbe1"/>
  <g font-size="11" fill="#656d76" letter-spacing="0.6">
    <text x="52" y="157">PR</text><text x="170" y="157">STATUS</text><text x="372" y="157">MESSAGE</text><text x="812" y="157">TIME</text>
  </g>

  <!-- rows -->
  <g font-size="15">
    <text x="52" y="199" font-weight="600" fill="#2563eb">#7301</text>
    <rect x="170" y="183" width="62" height="22" rx="11" fill="#e4edfd"/><text x="201" y="199" text-anchor="middle" font-size="12.5" font-weight="600" fill="#2563eb">Active</text>
    <text x="372" y="199" font-size="14" fill="#1f2328">all required checks pass; ignoring non-required checks</text>
    <text x="812" y="199" font-size="13" fill="#656d76">1m35s</text>
    <rect x="880" y="184" width="66" height="24" rx="8" fill="none" stroke="#d6dbe1"/><text x="913" y="200" text-anchor="middle" font-size="12" fill="#656d76">remove</text>

    <line x1="32" y1="217" x2="968" y2="217" stroke="#eef1f4"/>
    <text x="52" y="246" font-weight="600" fill="#2563eb">#7302</text>
    <rect x="170" y="230" width="66" height="22" rx="11" fill="#edeef0"/><text x="203" y="246" text-anchor="middle" font-size="12.5" font-weight="600" fill="#6b7280">Queued</text>
    <text x="372" y="246" font-size="14" fill="#1f2328">Drop the suite ctx field in common test helpers</text>
    <text x="812" y="246" font-size="13" fill="#656d76">31s</text>
    <rect x="880" y="231" width="66" height="24" rx="8" fill="none" stroke="#d6dbe1"/><text x="913" y="247" text-anchor="middle" font-size="12" fill="#656d76">remove</text>

    <line x1="32" y1="264" x2="968" y2="264" stroke="#eef1f4"/>
    <text x="52" y="293" font-weight="600" fill="#2563eb">#7318</text>
    <rect x="170" y="277" width="66" height="22" rx="11" fill="#edeef0"/><text x="203" y="293" text-anchor="middle" font-size="12.5" font-weight="600" fill="#6b7280">Queued</text>
    <text x="372" y="293" font-size="14" fill="#1f2328">Cache repeated lookups in the settlement importer</text>
    <text x="812" y="293" font-size="13" fill="#656d76">12s</text>
    <rect x="880" y="278" width="66" height="24" rx="8" fill="none" stroke="#d6dbe1"/><text x="913" y="294" text-anchor="middle" font-size="12" fill="#656d76">remove</text>
  </g>
</svg>
